<?xml version="1.0" standalone="no"?>
<!DOCTYPE svg PUBLIC "-//W3C//DTD SVG 20010904//EN"
 "http://www.w3.org/TR/2001/REC-SVG-20010904/DTD/svg10.dtd">
<svg version="1.0" xmlns="http://www.w3.org/2000/svg"
 width="634.000000pt" height="584.000000pt" viewBox="0 0 634.000000 584.000000"
 preserveAspectRatio="xMidYMid meet">

<g transform="translate(0.000000,584.000000) scale(0.100000,-0.100000)"
fill="#555" stroke="none">
<path fill="#3195ff" d="M1326 5819 c-316 -33 -553 -248 -634 -574 -46 -184 -51 -249 -62
-830 -5 -269 -14 -535 -20 -590 -31 -283 -97 -431 -241 -539 -73 -55 -147 -84
-266 -104 l-93 -15 0 -254 0 -253 43 0 c61 0 189 -34 250 -67 111 -61 204
-173 252 -306 48 -130 75 -429 75 -827 0 -268 15 -578 35 -735 17 -128 58
-267 102 -343 98 -172 263 -299 448 -347 72 -18 278 -35 438 -35 l117 0 0 243
0 244 -137 7 c-279 13 -377 63 -431 218 -34 98 -41 188 -42 543 -1 806 -47
1094 -213 1339 -76 112 -226 238 -359 302 -21 10 -38 20 -38 24 0 3 21 16 48
29 194 94 355 257 431 437 97 230 116 390 126 1094 3 228 11 450 16 493 35
275 129 350 457 364 l142 6 0 243 0 244 -182 -1 c-101 -1 -219 -5 -262 -10z"/>
<path fill="#3195ff" d="M4570 5586 l0 -243 143 -6 c327 -14 421 -89 456 -364 5 -43 13 -265
16 -493 10 -704 29 -864 126 -1094 76 -180 237 -343 432 -437 26 -13 47 -26
47 -29 0 -4 -17 -14 -37 -24 -134 -64 -284 -190 -360 -302 -167 -245 -212
-532 -213 -1339 -1 -355 -8 -445 -42 -543 -54 -155 -152 -205 -430 -218 l-138
-7 0 -244 0 -243 118 0 c159 0 365 17 437 35 185 48 350 175 448 347 43 75 85
215 101 339 20 148 36 487 36 749 0 388 28 688 75 817 48 133 141 245 252 306
61 33 189 67 250 67 l43 0 0 254 0 254 -80 11 c-153 23 -247 67 -339 161 -155
157 -200 391 -201 1035 -1 587 -29 835 -115 1021 -92 201 -233 329 -435 393
-87 28 -219 41 -422 41 l-168 0 0 -244z"/>
<path d="M1508 4708 c49 -95 496 -976 992 -1956 830 -1638 904 -1782 916
-1760 21 41 374 849 374 857 0 4 -321 687 -713 1517 l-712 1509 -473 3 -474 2
90 -172z"/>
<path d="M4140 2920 l0 -1960 375 0 375 0 0 1960 0 1960 -375 0 -375 0 0
-1960z"/>
<path d="M1410 1843 l0 -883 495 0 c272 0 495 2 495 5 0 5 -940 1679 -971
1730 -18 29 -19 13 -19 -852z"/>
</g>
</svg>
